External Loads File
version=1
nRows=38
nColumns=13
Range=5.000000e-03-10 seconds
endheader
time 	forceRightX 	forceRightY 	forceRightZ 	pointRightX 	pointRightY 	pointRightZ 	forceLeftX 	forceLeftY 	forceLeftZ 	pointLeftX 	pointLeftY 	pointLeftZ 		
2.505000 -33.175192 -145.380949 -0.000000 0.154559 0.442273 -0.148034 -159.513171 1082.626152 -0.000000 0.372790 0.213074 -0.380676
2.510000 -38.263608 -138.823004 -0.000000 0.159049 0.448751 -0.148467 -142.892781 1066.559709 -0.000000 0.368604 0.206981 -0.380690
2.515000 -42.688019 -131.021200 -0.000000 0.165354 0.455144 -0.147930 -120.320549 1045.493367 -0.000000 0.363997 0.201127 -0.380743
2.520000 -45.519109 -122.733297 -0.000000 0.169776 0.461479 -0.148800 -101.247756 1017.811924 -0.000000 0.359121 0.195475 -0.380817
2.525000 -47.958568 -113.914700 -0.000000 0.175433 0.467077 -0.149156 -79.467906 984.125241 -0.000000 0.353912 0.190130 -0.380862
2.530000 -50.311141 -104.577806 -0.000000 0.181436 0.472599 -0.149478 -56.359237 944.434153 -0.000000 0.348317 0.185178 -0.380850
2.535000 -52.759578 -94.582068 -0.000000 0.187227 0.477733 -0.149493 -34.585760 899.000121 -0.000000 0.342523 0.180536 -0.380826
2.540000 -55.900327 -83.350656 -0.000000 0.193581 0.482592 -0.149473 -12.356511 848.550653 -0.000000 0.336439 0.176186 -0.380853
2.545000 -59.792562 -70.416202 -0.000000 0.200075 0.487126 -0.149702 8.639011 793.831561 -0.000000 0.330102 0.172167 -0.380860
2.550000 -64.429784 -55.321385 -0.000000 0.206727 0.491311 -0.150001 27.938922 735.824374 -0.000000 0.323517 0.168630 -0.380869
2.555000 -69.659471 -37.766556 -0.000000 0.213548 0.495151 -0.150289 45.513874 675.600368 -0.000000 0.316712 0.165339 -0.380912
2.560000 -75.201971 -17.636372 -0.000000 0.220528 0.498513 -0.150467 61.755683 614.187773 -0.000000 0.309282 0.162553 -0.380565
2.565000 -80.645126 4.784824 -0.000000 0.227734 0.501467 -0.150597 75.679170 552.627693 -0.000000 0.301938 0.160104 -0.380611
2.570000 -85.663012 29.092898 -0.000000 0.234732 0.503935 -0.150650 87.314899 491.759350 -0.000000 0.294352 0.158149 -0.380571
2.575000 -89.992558 54.809010 -0.000000 0.241869 0.505949 -0.150871 96.962469 432.247325 -0.000000 0.286931 0.156550 -0.380876
2.580000 -93.359298 81.607153 -0.000000 0.248940 0.507588 -0.151026 105.360790 374.499678 -0.000000 0.279063 0.155456 -0.380750
2.585000 -95.672007 109.174522 -0.000000 0.255888 0.508611 -0.150992 112.296775 318.972180 -0.000000 0.270974 0.154880 -0.380644
2.590000 -96.955876 137.516418 -0.000000 0.262678 0.509013 -0.150828 117.821925 265.989639 -0.000000 0.262750 0.154688 -0.380462
2.595000 -97.382858 166.891609 -0.000000 0.269259 0.508940 -0.150601 121.953468 215.893135 -0.000000 0.254413 0.155088 -0.380435
2.600000 -97.102286 197.799362 -0.000000 0.275880 0.508354 -0.150577 124.772322 168.964738 -0.000000 0.245996 0.155669 -0.380234
2.605000 -96.620616 230.643332 -0.000000 0.282220 0.507069 -0.150255 125.948610 125.696727 -0.000000 0.237557 0.156969 -0.379658
2.610000 -96.428910 265.857390 -0.000000 0.288404 0.505126 -0.149836 125.321636 86.529845 -0.000000 0.229296 0.158568 -0.379624
2.615000 -96.970842 303.771534 -0.000000 0.294386 0.502667 -0.149345 122.811596 51.843850 -0.000000 0.221190 0.160655 -0.379297
2.620000 -98.466091 344.527221 -0.000000 0.300232 0.499736 -0.148896 118.452347 21.818978 -0.000000 0.213072 0.163224 -0.379106
2.625000 -101.842442 387.718150 -0.000000 0.306077 0.496067 -0.148335 112.401415 -3.263276 -0.000000 0.205658 0.166099 -0.378333
2.630000 -107.192665 432.813889 -0.000000 0.311736 0.492097 -0.148101 105.101536 -23.583361 -0.000000 0.198308 0.169323 -0.377992
2.635000 -114.472603 478.938822 -0.000000 0.317549 0.487747 -0.147861 97.042894 -39.509316 -0.000000 0.191130 0.172915 -0.378108
2.640000 -123.635519 524.923848 -0.000000 0.323464 0.483056 -0.147788 88.720010 -51.554735 -0.000000 0.184090 0.177014 -0.377883
2.645000 -134.762172 569.436033 -0.000000 0.329448 0.477971 -0.147812 80.614643 -60.238233 -0.000000 0.177315 0.181502 -0.377408
2.650000 -147.363544 611.368104 -0.000000 0.335400 0.472619 -0.147981 73.071316 -66.109012 -0.000000 0.170570 0.186473 -0.377033
2.655000 -161.567921 649.775087 -0.000000 0.341282 0.466922 -0.148118 66.378843 -69.579421 -0.000000 0.164076 0.191758 -0.376731
2.660000 -177.317554 684.178690 -0.000000 0.346904 0.460788 -0.148363 60.719214 -71.044389 -0.000000 0.157897 0.197387 -0.376377
2.665000 -193.345811 714.846358 -0.000000 0.352697 0.454333 -0.148393 56.109091 -70.955736 -0.000000 0.151951 0.203424 -0.376007
2.670000 -209.969838 741.993989 -0.000000 0.358207 0.447448 -0.148414 52.674073 -69.637881 -0.000000 0.146356 0.209864 -0.375705
2.675000 -226.097983 766.435605 -0.000000 0.363589 0.440313 -0.148449 50.329361 -67.540656 -0.000000 0.140731 0.216561 -0.375879
2.680000 -241.648025 788.743537 -0.000000 0.368824 0.432758 -0.148383 49.043325 -64.969405 -0.000000 0.135699 0.223583 -0.375979
2.685000 -255.876136 809.556948 -0.000000 0.373841 0.424980 -0.148318 48.671486 -62.182584 -0.000000 0.131058 0.230850 -0.375917
2.690000 -267.238997 829.578731 -0.000000 0.378575 0.416766 -0.148113 48.942448 -59.405104 -0.000000 0.126765 0.238393 -0.375883
